Coordinates
version=1
nRows=18
nColumns=22
inDegrees=yes

Units are S.I. units (second, meters, Newtons, ...)
If the header above contains a line with 'inDegrees', this indicates whether rotational values are in degrees (yes) or radians (no).

endheader
time	pelvis_tilt	pelvis_list	pelvis_rotation	pelvis_tx	pelvis_ty	pelvis_tz	hip_flexion_r	hip_adduction_r	hip_rotation_r	knee_angle_r	ankle_angle_r	subtalar_angle_r	hip_flexion_l	hip_adduction_l	hip_rotation_l	knee_angle_l	ankle_angle_l	subtalar_angle_l	lumbar_extension	lumbar_bending	lumbar_rotation
      0.01000000	     -2.82524307	     -7.58167448	      3.60392283	     -1.07753992	      0.97853131	     -0.26159802	      5.65039837	      7.62096444	     -5.20129683	    -14.62385572	      9.03524931	     -1.32882641	      3.55048045	     -8.65510800	      5.07647580	     -9.36938232	     11.31132271	     -0.48804940	      2.48739652	      6.86397427	     -6.41899477
      0.02000000	     -2.82864587	     -7.58489729	      3.59772034	     -1.07755003	      0.97850961	     -0.26163162	      5.65011943	      7.62421827	     -5.23614705	    -14.62477112	      9.04325517	     -1.32091680	      3.55174213	     -8.65696265	      5.07057045	     -9.36669304	     11.31286992	     -0.47880677	      2.48876766	      6.87173174	     -6.38825948
      0.03000000	     -2.81629579	     -7.55718150	      3.61057241	     -1.07757664	      0.97846262	     -0.26170186	      5.65432884	      7.59135947	     -5.36325402	    -14.67999177	      9.14999524	     -1.22998385	      3.54005164	     -8.62488323	      5.06537956	     -9.36422077	     11.33180235	     -0.45851574	      2.46710685	      6.84467259	     -6.38225388
      0.04000000	     -2.81722283	     -7.49788139	      3.64175493	     -1.07757406	      0.97841238	     -0.26184881	      5.64392385	      7.51843767	     -5.49727691	    -14.69663337	      9.28710579	     -0.87147025	      3.53661840	     -8.55043955	      5.12313410	     -9.35614721	     11.31645519	     -0.43704982	      2.46910745	      6.78587422	     -6.39040765
      0.05000000	     -2.80367552	     -7.48441880	      3.64865145	     -1.07758613	      0.97836051	     -0.26193047	      5.64269106	      7.50150630	     -5.62252770	    -14.74645047	      9.40107732	     -0.76880140	      3.51977020	     -8.53356132	      5.10009516	     -9.34987307	     11.33840449	     -0.44568057	      2.45096980	      6.78090041	     -6.37737269
      0.06000000	     -2.79286116	     -7.43944210	      3.68629826	     -1.07758300	      0.97832554	     -0.26208082	      5.62610818	      7.44421096	     -5.74420093	    -14.76472496	      9.51226074	     -0.57452717	      3.50130301	     -8.47692321	      5.14211584	     -9.33160493	     11.33167689	     -0.45516661	      2.44230343	      6.73964539	     -6.38876927
      0.07000000	     -2.78419738	     -7.42710287	      3.71366877	     -1.07760406	      0.97830413	     -0.26220458	      5.61301724	      7.42265110	     -5.82531827	    -14.77142846	      9.58800546	     -0.33842471	      3.48605570	     -8.45775436	      5.17655165	     -9.31116405	     11.32292987	     -0.47401829	      2.43329731	      6.73604769	     -6.39345954
      0.08000000	     -2.78615681	     -7.42515086	      3.72576579	     -1.07766259	      0.97828298	     -0.26229485	      5.61142816	      7.42042142	     -5.82708133	    -14.76743146	      9.59063118	     -0.33552759	      3.49108136	     -8.45118489	      5.17453597	     -9.30495466	     11.32363505	     -0.47445278	      2.43045620	      6.74391597	     -6.38642438
      0.09000000	     -2.77409609	     -7.41087975	      3.76802180	     -1.07767356	      0.97827979	     -0.26243500	      5.59507239	      7.39552625	     -5.89655439	    -14.76671942	      9.64446187	     -0.25443164	      3.47005427	     -8.42948741	      5.22492161	     -9.27672594	     11.31634646	     -0.48314513	      2.42327132	      6.73583687	     -6.39222541
      0.10000000	     -2.77479485	     -7.41054434	      3.78183544	     -1.07774375	      0.97827260	     -0.26253373	      5.59792247	      7.39111611	     -5.89541156	    -14.76382909	      9.64504332	     -0.25319849	      3.47403823	     -8.42370015	      5.22254917	     -9.26959248	     11.31643454	     -0.48336934	      2.41755628	      6.74676416	     -6.38749557
      0.11000000	     -2.77464146	     -7.41092540	      3.80045929	     -1.07781175	      0.97826950	     -0.26264311	      5.60083615	      7.38555884	     -5.89494483	    -14.76189064	      9.64622856	     -0.25211116	      3.47732677	     -8.41874874	      5.22165868	     -9.25968936	     11.31604178	     -0.48348131	      2.41335363	      6.75805975	     -6.38096757
      0.12000000	     -2.77685989	     -7.41511464	      3.83060690	     -1.07785855	      0.97826795	     -0.26275615	      5.60592385	      7.38117253	     -5.93139276	    -14.75783696	      9.65716279	     -0.24324819	      3.46075661	     -8.41904608	      5.27097387	     -9.20885074	     11.29855286	     -0.48275665	      2.41597731	      6.76924583	     -6.36622419
      0.13000000	     -2.77654334	     -7.41519238	      3.84943764	     -1.07794238	      0.97826656	     -0.26287211	      5.61142256	      7.37446250	     -5.92853723	    -14.75701597	      9.65687695	     -0.24327724	      3.46412426	     -8.41286108	      5.26897104	     -9.19876373	     11.29800927	     -0.48297304	      2.40810617	      6.78152154	     -6.36411193
      0.14000000	     -2.77655174	     -7.41193506	      3.88407460	     -1.07800916	      0.97826917	     -0.26300563	      5.62324796	      7.36052655	     -5.95900523	    -14.76853581	      9.65402499	     -0.24753130	      3.44275691	     -8.40372833	      5.32021499	     -9.14081051	     11.26914178	     -0.48428420	      2.40544382	      6.78728093	     -6.37821881
      0.15000000	     -2.77800167	     -7.41138434	      3.90738831	     -1.07810419	      0.97826787	     -0.26311192	      5.63040691	      7.35388191	     -5.96137929	    -14.76598519	      9.65420272	     -0.24947238	      3.44637807	     -8.39803333	      5.32093102	     -9.12436117	     11.26641850	     -0.48532435	      2.39609912	      6.79387785	     -6.37334845
      0.16000000	     -2.78613167	     -7.40479842	      3.92815227	     -1.07819078	      0.97826231	     -0.26322923	      5.64937726	      7.33611599	     -5.99106700	    -14.77315695	      9.65191662	     -0.25891287	      3.43442416	     -8.38563798	      5.35164203	     -9.07095162	     11.24454913	     -0.48678860	      2.39422047	      6.79611004	     -6.37080724
      0.17000000	     -2.78814570	     -7.40431386	      3.94399197	     -1.07829395	      0.97825824	     -0.26333963	      5.65656079	      7.32837590	     -5.98948503	    -14.77000481	      9.65237024	     -0.25990510	      3.44010154	     -8.37915951	      5.34929391	     -9.06027185	     11.24385709	     -0.48705377	      2.38252165	      6.80785938	     -6.36729176
      0.18000000	     -2.79759538	     -7.39114432	      3.96681950	     -1.07838518	      0.97825144	     -0.26344781	      5.68425800	      7.30377705	     -6.02220815	    -14.79122636	      9.65238525	     -0.27230097	      3.43043184	     -8.36007174	      5.38628027	     -9.00799506	     11.21353797	     -0.48848090	      2.38014991	      6.80003746	     -6.36407589
